<?xml version="1.0" encoding="UTF-8" standalone="no"?><!DOCTYPE svg PUBLIC "-//W3C//DTD SVG 1.1//EN" "http://www.w3.org/Graphics/SVG/1.1/DTD/svg11.dtd"><svg xmlns="http://www.w3.org/2000/svg" xmlns:xlink="http://www.w3.org/1999/xlink" version="1.1" width="786" height="1212" viewBox="0 0 1328 2048">
<desc>Created with SVGMaker Editor 3.0.0</desc>
<defs>
</defs>
<g transform="matrix(1.00501 0 0 0.91477 663.86485 1112.54479)">
<linearGradient id="SVGID_2" gradientUnits="userSpaceOnUse" gradientTransform="matrix(1 0 0 1 0 0)" x1="1032.91" y1="1956.68" x2="152.587" y2="591.841">
<stop offset="0%" style="stop-color:rgba(250,80,43,1);"/>
<stop offset="100%" style="stop-color:rgba(255,128,65,1);"/>
</linearGradient>
<path transform=" translate(-660.57245, -1025.92901)" style="fill: url(#SVGID_2)" stroke-linecap="round" d="M 197.892 974.455 L 197.842 692.504 C 197.831 627.676 195.929 561.14 200.649 497.12 C 218.498 255.051 400.201 6.91681 660.406 7.12816 C 922.046 7.34068 1103.86 256.14 1121.34 499.127 C 1124.85 547.921 1123.82 595.147 1123.82 643.619 L 1123.77 870.074 C 1123.76 903.236 1122.23 951.893 1123.9 984.064 C 1134.64 1000.92 1145.08 1017.11 1156.62 1033.34 C 1177.55 1062.79 1199.91 1091.72 1219.14 1122.23 C 1305.75 1259.68 1339.51 1413.63 1302.98 1573.48 C 1286.64 1644.99 1256.17 1718.94 1214.37 1779.61 C 1204.38 1794.11 1193.1 1806.91 1182.04 1820.54 C 1174.23 1830.18 1166.58 1841.78 1158.31 1850.91 C 1118.32 1895.08 1075.82 1932.45 1025.61 1964.47 C 963.342 2004.18 893.142 2032.9 819.33 2040.61 C 790.063 2043.66 760.104 2042.51 729.884 2044.73 C 734.255 2038.6 738.781 2032.58 743.456 2026.67 C 853.768 1871.25 797.49 1707.66 671.108 1585.91 C 661.4 1576.56 650.2 1562.79 640.124 1554.82 C 619.134 1620.61 585.354 1654.25 551.675 1710.33 C 503.265 1790.93 500.497 1902.22 544.383 1985.33 C 552.706 2001.09 560.976 2013.93 570.907 2028.78 C 574.333 2033.42 578.995 2038.47 582.847 2042.87 C 549.248 2043.16 514.285 2043.18 481.793 2037.64 C 392.051 2022.34 307.983 1978.88 238.314 1921.08 C 222.247 1907.75 207.908 1897.83 192.609 1882.54 C 150.524 1840.5 112.873 1793.64 82.0327 1742.72 C 70.5336 1723.71 60.2303 1699.64 51.805 1679.07 C 21.3089 1606.27 4.99518 1528.32 3.74039 1449.4 C 0.17932 1289.82 66.9447 1142.02 163.109 1018.12 C 174.108 1003.95 185.651 987.264 197.892 974.455 Z M 919.751 1183.19 C 918.216 1114.56 929.68 1007.89 958.928 946.387 C 959.826 875.997 958.878 804.721 959.077 734.097 C 958.378 675.977 961.306 617.09 954.634 559.242 C 941.301 443.632 901.198 328.702 816.988 245.299 C 769.168 197.938 708.362 172.175 640.163 179.989 C 569.677 188.065 518.484 233.278 475.146 286.254 C 409.624 370.254 378.788 483.773 371.305 588.937 C 369.13 622.399 369.66 659.289 369.653 693.013 L 369.631 753.69 C 369.619 763.806 369.144 780.53 370.268 789.918 C 481.816 678.053 611.679 539.27 595.321 371.757 C 594.125 359.508 583.85 318.854 585.375 311.643 C 602.963 296.446 701.967 382.518 716.006 397.532 C 726.935 409.22 739.717 422.798 750.125 435.263 C 844.426 538.535 877.856 668.191 866.205 805.706 C 856.711 917.758 800.183 1051.51 886.037 1148.27 C 897.562 1161.59 909.436 1171.53 919.751 1183.19 Z"/>
</g>
<path transform="translate(0,0)" style="fill: rgb(231,42,39)" stroke-linecap="round" d="M573.7496 2029.9297C566.4321 2036.0861 552.1409 2020.9467 546.3771 2016.2173 506.3637 1983.6424 470.0034 1947.5272 437.83 1908.4117 391.2106 1852.0435 320.4328 1755.023 302.6552 1686.891 292.0483 1646.2386 293.7709 1547.6996 301.1768 1504.4218 324.7664 1366.566 412.4686 1234.8116 518.9022 1136.4647 554.2223 1103.8257 586.7775 1079.9466 626.3076 1052.895 625.5106 1108.0245 614.9038 1157.6599 626.3679 1213.5066 633.4633 1248.0758 643.5877 1279.4982 664.106 1309.4569 744.734 1427.1786 912.4209 1471.1699 961.4714 1612.5019 986.6911 1685.1804 985.3082 1766.6223 947.2324 1835.5777 937.9914 1852.0161 927.3895 1867.7959 915.5183 1882.7707 896.1347 1907.7256 778.5646 2043.1024 747.1631 2027.9996 858.0277 1885.826 801.4678 1736.1788 674.4526 1624.8055 664.696 1616.2524 653.4399 1603.656 643.3134 1596.3653 622.2182 1656.548 588.269 1687.3209 554.4212 1738.6212 505.7687 1812.3517 502.9868 1914.1564 547.0927 1990.183 555.4574 2004.5997 563.7688 2016.3454 573.7496 2029.9297Z"/>
<path transform="translate(0,0)" style="fill: rgb(2,2,2)" stroke-linecap="round" d="M198.8659 1065.4555L198.8157 807.5352C198.8046 748.2325 196.8931 687.3674 201.6367 628.8038 219.5752 407.3663 402.1885 180.3806 663.6971 180.574 926.6479 180.7684 1109.3728 408.3625 1126.9404 630.6397 1130.468 675.275 1129.4328 718.4759 1129.4328 762.8167L1129.3826 969.9709C1129.3725 1000.3065 1127.8349 1044.8165 1129.5132 1074.2456 1125.3927 1069.1521 1121.8752 1063.0113 1118.6893 1057.5217 1092.8907 1012.9569 1083.9863 961.6502 1094.9911 912.1794 1096.5087 905.3754 1099.8554 892.7049 1092.5289 888.0862 1083.9059 888.2756 1070.2176 901.3485 1064.0469 906.8536 1033.9569 933.5494 1008.2186 964.0149 987.5867 997.3299 978.8462 1011.6332 971.994 1025.9924 963.7147 1039.7798 964.6172 975.3891 963.6645 910.188 963.8645 845.5832 963.162 792.4168 966.1046 738.5487 959.3992 685.6311 945.9994 579.8746 905.6955 474.7401 821.0636 398.4455 773.004 355.1211 711.8934 331.5539 643.3527 338.7019 572.5136 346.0895 521.0641 387.449 477.509 435.9099 411.6587 512.7506 380.6682 616.5944 373.1477 712.7952 370.9618 743.4053 371.4945 777.1511 371.4875 808.0008L371.4653 863.5063C371.4533 872.7601 370.9759 888.0588 372.1055 896.6466 362.5549 907.129 345.0637 922.1916 334.0569 932.3254 312.8371 951.9271 291.8897 971.7721 271.2206 991.855 256.7495 1005.8903 242.5547 1020.1607 228.6434 1034.658 222.8525 1040.7851 204.5995 1061.0765 198.8659 1065.4555Z"/>
</svg>