<svg version="1.1" xmlns="http://www.w3.org/2000/svg" style="display: block;" viewBox="0 0 1328 2048" width="786" height="1212" preserveAspectRatio="none">
<defs>
	<linearGradient id="Gradient1" gradientUnits="userSpaceOnUse" x1="1032.91" y1="1956.68" x2="152.587" y2="591.841">
		<stop class="stop0" offset="0" stop-opacity="1" stop-color="rgb(250,80,43)"/>
		<stop class="stop1" offset="1" stop-opacity="1" stop-color="rgb(255,128,65)"/>
	</linearGradient>
</defs>
<path transform="translate(0,0)" fill="url(#Gradient1)" d="M 197.892 974.455 L 197.842 692.504 C 197.831 627.676 195.929 561.14 200.649 497.12 C 218.498 255.051 400.201 6.91681 660.406 7.12816 C 922.046 7.34068 1103.86 256.14 1121.34 499.127 C 1124.85 547.921 1123.82 595.147 1123.82 643.619 L 1123.77 870.074 C 1123.76 903.236 1122.23 951.893 1123.9 984.064 C 1134.64 1000.92 1145.08 1017.11 1156.62 1033.34 C 1177.55 1062.79 1199.91 1091.72 1219.14 1122.23 C 1305.75 1259.68 1339.51 1413.63 1302.98 1573.48 C 1286.64 1644.99 1256.17 1718.94 1214.37 1779.61 C 1204.38 1794.11 1193.1 1806.91 1182.04 1820.54 C 1174.23 1830.18 1166.58 1841.78 1158.31 1850.91 C 1118.32 1895.08 1075.82 1932.45 1025.61 1964.47 C 963.342 2004.18 893.142 2032.9 819.33 2040.61 C 790.063 2043.66 760.104 2042.51 729.884 2044.73 C 734.255 2038.6 738.781 2032.58 743.456 2026.67 C 853.768 1871.25 797.49 1707.66 671.108 1585.91 C 661.4 1576.56 650.2 1562.79 640.124 1554.82 C 619.134 1620.61 585.354 1654.25 551.675 1710.33 C 503.265 1790.93 500.497 1902.22 544.383 1985.33 C 552.706 2001.09 560.976 2013.93 570.907 2028.78 C 574.333 2033.42 578.995 2038.47 582.847 2042.87 C 549.248 2043.16 514.285 2043.18 481.793 2037.64 C 392.051 2022.34 307.983 1978.88 238.314 1921.08 C 222.247 1907.75 207.908 1897.83 192.609 1882.54 C 150.524 1840.5 112.873 1793.64 82.0327 1742.72 C 70.5336 1723.71 60.2303 1699.64 51.805 1679.07 C 21.3089 1606.27 4.99518 1528.32 3.74039 1449.4 C 0.179323 1289.82 66.9447 1142.02 163.109 1018.12 C 174.108 1003.95 185.651 987.264 197.892 974.455 z M 919.751 1183.19 C 918.216 1114.56 929.68 1007.89 958.928 946.387 C 959.826 875.997 958.878 804.721 959.077 734.097 C 958.378 675.977 961.306 617.09 954.634 559.242 C 941.301 443.632 901.198 328.702 816.988 245.299 C 769.168 197.938 708.362 172.175 640.163 179.989 C 569.677 188.065 518.484 233.278 475.146 286.254 C 409.624 370.254 378.788 483.773 371.305 588.937 C 369.13 622.399 369.66 659.289 369.653 693.013 L 369.631 753.69 C 369.619 763.806 369.144 780.53 370.268 789.918 C 481.816 678.053 611.679 539.27 595.321 371.757 C 594.125 359.508 583.85 318.854 585.375 311.643 C 602.963 296.446 701.967 382.518 716.006 397.532 C 726.935 409.22 739.717 422.798 750.125 435.263 C 844.426 538.535 877.856 668.191 866.205 805.706 C 856.711 917.758 800.183 1051.51 886.037 1148.27 C 897.562 1161.59 909.436 1171.53 919.751 1183.19 z"/>
<path transform="translate(0,0)" fill="rgb(231,42,39)" d="M 570.907 2028.78 C 563.626 2035.51 549.406 2018.96 543.671 2013.79 C 503.857 1978.18 467.678 1938.7 435.665 1895.94 C 389.278 1834.32 318.853 1728.26 301.164 1653.78 C 290.61 1609.34 292.324 1501.62 299.693 1454.31 C 323.165 1303.61 410.43 1159.58 516.333 1052.07 C 551.477 1016.39 583.87 990.286 623.203 960.714 C 622.41 1020.98 611.856 1075.24 623.263 1136.29 C 630.323 1174.08 640.397 1208.43 660.813 1241.18 C 741.039 1369.87 907.89 1417.96 956.696 1572.46 C 981.79 1651.91 980.414 1740.94 942.528 1816.32 C 933.333 1834.29 922.784 1851.54 910.972 1867.91 C 891.685 1895.19 774.701 2043.18 743.456 2026.67 C 853.768 1871.25 797.49 1707.66 671.108 1585.91 C 661.4 1576.56 650.2 1562.79 640.124 1554.82 C 619.134 1620.61 585.354 1654.25 551.675 1710.33 C 503.265 1790.93 500.497 1902.22 544.383 1985.33 C 552.706 2001.09 560.976 2013.93 570.907 2028.78 z"/>
<path transform="translate(0,0)" fill="rgb(2,2,2)" d="M 197.892 974.455 L 197.842 692.504 C 197.831 627.676 195.929 561.14 200.649 497.12 C 218.498 255.051 400.201 6.91681 660.406 7.12816 C 922.046 7.34068 1103.86 256.14 1121.34 499.127 C 1124.85 547.921 1123.82 595.147 1123.82 643.619 L 1123.77 870.074 C 1123.76 903.236 1122.23 951.893 1123.9 984.064 C 1119.8 978.496 1116.3 971.783 1113.13 965.782 C 1087.46 917.065 1078.6 860.978 1089.55 806.898 C 1091.06 799.46 1094.39 785.609 1087.1 780.56 C 1078.52 780.767 1064.9 795.058 1058.76 801.076 C 1028.82 830.259 1003.21 863.563 982.681 899.982 C 973.984 915.618 967.166 931.315 958.928 946.387 C 959.826 875.997 958.878 804.721 959.077 734.097 C 958.378 675.977 961.306 617.09 954.634 559.242 C 941.301 443.632 901.198 328.702 816.988 245.299 C 769.168 197.938 708.362 172.175 640.163 179.989 C 569.677 188.065 518.484 233.278 475.146 286.254 C 409.624 370.254 378.788 483.773 371.305 588.937 C 369.13 622.399 369.66 659.289 369.653 693.013 L 369.631 753.69 C 369.619 763.806 369.144 780.53 370.268 789.918 C 360.765 801.377 343.361 817.843 332.409 828.921 C 311.295 850.349 290.452 872.043 269.886 893.997 C 255.487 909.34 241.363 924.94 227.521 940.788 C 221.759 947.486 203.597 969.668 197.892 974.455 z"/>
</svg>