<?xml version="1.0" encoding="UTF-8" standalone="no"?><!DOCTYPE svg PUBLIC "-//W3C//DTD SVG 1.1//EN" "http://www.w3.org/Graphics/SVG/1.1/DTD/svg11.dtd"><svg xmlns="http://www.w3.org/2000/svg" xmlns:xlink="http://www.w3.org/1999/xlink" version="1.1" width="786" height="1212" viewBox="0 0 1328 2048">
<desc>Created with SVGMaker Editor 3.0.0</desc>
<defs>
</defs>
<path transform="translate(0,0)" style="stroke-width: 0; fill: rgb(1,1,1); fill-rule: evenodd" stroke-linecap="round" d="M369.022 1068.1L368.896 899.458C369.251 899.079 369.597 898.705 369.933 898.336 369.036 891.523 369.15 880.492 369.242 871.597 369.266 869.266 369.289 867.082 369.291 865.159L369.314 809.593C369.315 805.049 369.303 800.442 369.291 795.79L369.291 795.665 369.291 795.29 369.288 794.181C369.219 767.705 369.147 739.897 370.976 714.282 378.508 617.975 409.545 514.016 475.495 437.091 519.115 388.576 570.642 347.171 641.587 339.775 710.231 332.62 771.434 356.213 819.565 399.585 904.324 475.964 944.689 581.214 958.109 687.088 962.983 725.543 962.767 764.5 962.551 803.325 962.469 817.985 962.388 832.627 962.581 847.216 962.505 871.672 962.595 896.212 962.685 920.761L962.685 920.803 962.685 920.885 962.687 921.327 962.689 921.741C962.839 961.792 962.988 1001.86 962.431 1041.63 962.858 1040.92 963.281 1040.21 963.701 1039.49L963.727 1074.07 1126.792 1073.95C1127.342 1074.69 1127.912 1075.42 1128.482 1076.13 1127.312 1055.71 1127.692 1028.04 1128.042 1002.87 1128.202 991.72 1128.342 981.062 1128.352 971.741L1128.402 764.359C1128.402 756.127 1128.432 747.935 1128.472 739.765L1128.472 739.156 1128.472 739.093C1128.622 703.437 1128.772 668.207 1125.902 632.036 1108.312 409.513 925.308 181.667 661.962 181.473 400.061 181.279 217.173 408.516 199.208 630.198 195.509 675.838 195.85 722.875 196.188 769.483 196.284 782.746 196.38 795.975 196.383 809.126L196.392 858.807 196.142 858.807 196.298 1068.23 369.022 1068.1Z"/>
<g transform="matrix(1 0 0 1 663.86718 1251.16469)">
<linearGradient id="SVGID_10" gradientUnits="userSpaceOnUse" gradientTransform="matrix(1 0 0 1 0.00253 450.53136)" x1="1032.91" y1="1956.68" x2="152.587" y2="591.841">
<stop offset="0%" style="stop-color:rgba(250,80,43,1);"/>
<stop offset="100%" style="stop-color:rgba(255,128,65,1);"/>
</linearGradient>
<path transform=" translate(-663.86718, -1251.16469)" style="fill: url(#SVGID_10); fill-rule: evenodd" stroke-linecap="round" d="M 198.868 1065.42 L 199.055 1065.24 L 199.055 1066.05 C 204.797 1061.67 223.078 1041.35 228.877 1035.22 C 242.809 1020.7 257.026 1006.42 271.518 992.373 C 292.219 972.268 313.198 952.401 334.449 932.777 C 345.473 922.633 362.99 907.553 372.555 897.059 C 372.53 896.866 372.505 896.669 372.481 896.468 C 484.504 794.197 614.71 667.354 598.288 514.288 C 597.81 509.835 595.891 501.276 593.848 492.165 L 593.846 492.157 L 593.84 492.13 C 590.746 478.328 587.37 463.268 588.292 459.298 C 605.968 445.396 705.468 524.132 719.578 537.866 C 730.561 548.558 743.407 560.979 753.868 572.382 C 848.641 666.852 882.239 785.457 870.529 911.252 C 868.227 935.979 863.175 961.861 858.044 988.145 C 841.905 1070.81 824.991 1157.45 890.461 1224.61 C 902.043 1236.8 913.977 1245.89 924.343 1256.56 C 922.884 1197.17 933.116 1106.64 959.111 1049.4 L 965.066 1039.39 C 965.062 1039.71 965.057 1040.03 965.053 1040.35 C 973.345 1026.54 980.207 1012.17 988.961 997.854 C 1009.62 964.502 1035.4 934.003 1065.54 907.278 C 1071.72 901.766 1085.42 888.679 1094.06 888.489 C 1101 892.864 1098.37 904.452 1096.78 911.456 L 1096.78 911.472 C 1096.69 911.867 1096.61 912.246 1096.53 912.609 C 1085.51 962.135 1094.42 1013.49 1120.26 1058.11 C 1123.01 1062.84 1126.01 1068.06 1129.42 1072.68 C 1129.45 1073.26 1129.48 1073.83 1129.52 1074.4 C 1140.31 1089.82 1150.8 1104.63 1162.4 1119.48 C 1183.43 1146.42 1205.91 1172.88 1225.23 1200.79 C 1312.28 1326.53 1346.21 1467.36 1309.49 1613.58 C 1293.07 1679 1262.45 1746.65 1220.44 1802.14 C 1210.4 1815.41 1199.06 1827.12 1187.95 1839.59 C 1180.1 1848.4 1172.41 1859.02 1164.1 1867.37 C 1123.91 1907.77 1081.19 1941.96 1030.73 1971.25 C 968.153 2007.57 897.601 2033.85 823.419 2040.9 C 794.006 2043.69 763.897 2042.64 733.525 2044.67 C 737.918 2039.06 742.467 2033.55 747.165 2028.15 C 858.03 1885.97 801.47 1736.33 674.455 1624.95 C 664.698 1616.4 653.442 1603.8 643.315 1596.51 C 622.22 1656.7 588.271 1687.47 554.423 1738.77 C 505.771 1812.5 502.989 1914.3 547.095 1990.33 C 555.459 2004.75 563.771 2016.49 573.752 2030.08 C 577.195 2034.32 581.88 2038.94 585.752 2042.97 C 551.984 2043.23 516.846 2043.25 484.191 2038.18 C 394 2024.19 309.51 1984.43 239.492 1931.56 C 223.345 1919.36 208.934 1910.29 193.558 1896.3 C 151.263 1857.85 113.423 1814.98 82.4281 1768.4 C 70.8714 1751.01 60.5165 1728.99 52.049 1710.17 C 21.4001 1643.58 5.0047 1572.27 3.7436 1500.08 C 0.1647 1354.1 67.2645 1218.9 163.911 1105.56 C 174.965 1092.59 186.566 1077.33 198.868 1065.61 L 198.868 1065.42 Z"/>
</g>
<path transform="translate(0,0)" style="fill: rgb(231,42,39)" stroke-linecap="round" d="M573.2721 2029.9273C565.9546 2036.0837 551.6634 2020.9443 545.8996 2016.2149 505.8862 1983.64 469.5259 1947.5248 437.3525 1908.4093 390.7331 1852.0411 319.9553 1755.0206 302.1777 1686.8886 291.5708 1646.2362 293.2934 1547.6972 300.6993 1504.4194 324.2889 1366.5636 411.9911 1234.8092 518.4247 1136.4623 553.7447 1103.8233 586.3 1079.9442 625.8301 1052.8926 625.0331 1108.0221 614.4262 1157.6575 625.8904 1213.5042 632.9857 1248.0734 643.1102 1279.4958 663.6285 1309.4545 744.2564 1427.1762 911.9434 1471.1675 960.9939 1612.4995 986.2136 1685.178 984.8307 1766.6199 946.7549 1835.5753 937.5138 1852.0137 926.912 1867.7935 915.0408 1882.7683 895.6572 1907.7232 778.0871 2043.1 746.6855 2027.9972 857.5502 1885.8236 800.9903 1736.1764 673.9751 1624.8031 664.2184 1616.25 652.9623 1603.6536 642.8358 1596.3629 621.7407 1656.5456 587.7915 1687.3185 553.9437 1738.6188 505.2912 1812.3493 502.5093 1914.154 546.6152 1990.1806 554.9799 2004.5973 563.2913 2016.343 573.2721 2029.9273Z"/>
<path transform="translate(0,0)" style="stroke-width: 0; fill: none" vector-effect="non-scaling-stroke" stroke-linecap="round" d="M239.1589 309.8808L442.6412 309.8808C469.295 309.8808 490.9035 332.266 490.9035 359.882 490.9035 387.4956 469.295 409.8807 442.6388 409.8807L239.1589 409.8807C212.5003 409.8807 190.8918 387.4956 190.8918 359.882 190.8918 332.2684 212.5003 309.8808 239.1589 309.8808Z"/>
</svg>